# xmcd
#
# Track frame offsets: 
#        150
#        15980
#        31387
#        46155
#        56242
#        77892
#        96370
#        118982
#        133357
#        145015
#        160407
#
# Disc length: 3867 seconds
#
# Revision: 0
# Processed by: cddbd v1.5.2PL0 Copyright (c) Steve Scherf et al.
# Submitted via: ExactAudioCopy v1.0b1
#
DISCID=990f190b
DTITLE=Big Blue Daddys - Money Don't Beat The Blues
DYEAR=1999
DGENRE=Blues
TTITLE0=BBQ
TTITLE1=Railroad Man
TTITLE2=Mney Don't Beat the Blues
TTITLE3=KingSize
TTITLE4=Pappy's Juke
TTITLE5=My Baby's Home
TTITLE6=Higher Ground
TTITLE7=Hell's Freezin' Over
TTITLE8=Voodoo
TTITLE9=Red Rooster
TTITLE10=Live in Beantown
EXTD=
EXTT0=
EXTT1=
EXTT2=
EXTT3=
EXTT4=
EXTT5=
EXTT6=
EXTT7=
EXTT8=
EXTT9=
EXTT10=
PLAYORDER=
